<svg width="259" height="64" viewBox="0 0 259 64" xmlns="http://www.w3.org/2000/svg"><title>multiply-logo</title><path d="M25.048 55.593c-.524-.164-.864-.756-.742-1.295a25.218 25.218 0 0 1 7.266-12.704c3.87-3.646 8.867-5.99 14.137-6.597a24.803 24.803 0 0 1 10.18.954c.525.163.864.756.742 1.295C54.111 48.376 44.2 56.71 32.385 56.71c-2.554 0-5.017-.393-7.337-1.116M63.94 32.838a32.266 32.266 0 0 1-6.21 18.105c-4.232 5.784-10.366 10.049-17.24 11.94-7.825 2.152-16.327 1.166-23.46-2.705-.477-.258-.858-.925-.842-1.472a31.798 31.798 0 0 1 1.037-7.218A32.285 32.285 0 0 1 22.398 40.6c4.053-5.538 9.847-9.682 16.366-11.685.518-.159 1.365-.39 1.892-.515 7.54-1.801 15.617-.738 22.444 2.965.476.26.857.926.84 1.472zm-43.35 1.766c-.364.403-1.078.66-1.61.588a23.933 23.933 0 0 0-10.363.888c-.513.162-.845.75-.726 1.283a24.902 24.902 0 0 0 4.411 9.549c.327.434.464 1.194.303 1.716a37.463 37.463 0 0 0-1.418 6.74c-.064.543-.434.698-.832.33A32.4 32.4 0 0 1 1.03 40.081a32.967 32.967 0 0 1-1.028-7.234c-.017-.547.361-1.215.834-1.475a31.06 31.06 0 0 1 6.655-2.704 31.233 31.233 0 0 1 17.986.416c.511.167.565.573.134.9a37 37 0 0 0-5.02 4.62zM54.608 22.61C50.916 13.687 42.159 7.397 31.969 7.397c-10.186 0-18.94 6.287-22.633 15.205-.209.503-.79 1.002-1.318 1.12a36.26 36.26 0 0 0-6.482 2.117c-.497.216-.818-.032-.704-.565A32.219 32.219 0 0 1 9.525 9.31c4.046-4.044 9.158-6.962 14.69-8.355a31.9 31.9 0 0 1 17.526.58c5.432 1.76 10.345 5.015 14.12 9.32a32.219 32.219 0 0 1 7.247 14.426c.115.533-.205.781-.703.565a36.289 36.289 0 0 0-6.48-2.115c-.528-.119-1.109-.617-1.317-1.12zm53.5 20.158V31.266c0-1.192-.074-2.56-.77-3.581-.625-.918-1.618-1.277-2.71-1.234-2.594.103-3.687 2.724-3.687 4.953V42.77c0 .54-.444.978-.992.978H94.3a.985.985 0 0 1-.992-.978V30.715c0-1.103-.173-2.322-.868-3.226-.656-.853-1.764-1.117-2.805-1.025-2.452.217-3.447 2.763-3.447 4.894V42.77c0 .54-.444.978-.992.978h-5.695a.985.985 0 0 1-.992-.978V21.874c0-.54.444-.978.992-.978h5.416c.548 0 .992.438.992.978v1.21c0 .54.02.978.047.978.025 0 .259-.387.59-.817 1.611-2.095 4.233-3.103 6.92-2.98 2.42.11 4.586 1.134 5.941 3.051.314.443.745.465 1.09.045 1.671-2.038 4.104-3.109 6.82-3.108 3.04.001 5.727 1.342 7.18 4.039.868 1.61 1.244 3.508 1.244 5.322v13.155c0 .54-.445.978-.992.978h-5.65a.985.985 0 0 1-.991-.978zm27.859.172v-1.21c0-.54-.02-.979-.046-.979s-.247.394-.574.825c-1.593 2.11-4.42 3.104-7.028 2.968-2.836-.15-5.347-1.642-6.634-4.195-.793-1.572-1.088-3.405-1.088-5.15V22.04c0-.54.44-.978.983-.978h5.649a.98.98 0 0 1 .983.978v11.414c0 1.279.107 2.734.928 3.783.728.93 1.87 1.178 3.005 1.055 2.416-.263 3.545-2.69 3.545-4.884V22.04c0-.54.44-.978.983-.978h5.603a.98.98 0 0 1 .983.978v20.9a.98.98 0 0 1-.983.978h-5.325a.98.98 0 0 1-.984-.978zm12.958-.176V9.893c0-.542.462-.982 1.033-.982h6.028c.57 0 1.033.44 1.033.982v32.872c0 .542-.462.982-1.033.982h-6.028c-.57 0-1.033-.44-1.033-.982zm21.404-15.356v7.924c0 .773.096 1.682.528 2.335.301.455 1.115.849 1.642.935.61.1 1.287.067 1.897-.063.523-.11.928.15.937.7l.058 3.619c.01.55-.39 1.148-.908 1.284-1.217.32-2.503.437-3.74.41-1.38-.03-2.786-.226-4.044-.837-2.803-1.361-3.625-4.49-3.625-7.458V27.41c0-.55-.432-.996-.966-.996h-1.695c-.533 0-.966-.446-.966-.996v-3.712c0-.55.433-.997.966-.997h1.65c.534 0 .966-.446.966-.996V15.58c0-.55.433-.997.966-.997h5.367c.534 0 .967.446.967.997v4.133c0 .55.432.996.966.996h3.373c.534 0 .966.446.966.997v3.712c0 .55-.432.996-.966.996h-3.373c-.534 0-.966.446-.966.996zm10.162 15.367V22.034c0-.536.423-.97.946-.97h5.392c.522 0 .946.434.946.97v20.742c0 .536-.424.97-.946.97h-5.392a.958.958 0 0 1-.946-.97zm.245-26.338c-1.146-1.225-1.387-3.046-.582-4.505.7-1.267 2.119-2.07 3.591-2.2.556-.05 1.462.065 1.984.25 1.645.585 2.855 2.055 2.855 3.802 0 3.846-5.29 5.389-7.848 2.653zm34.722 25.45c-2.566 2.337-6.236 3.28-9.627 2.439-1.477-.366-2.914-1.072-3.987-2.152-.386-.388-.664-.753-.69-.753-.025 0-.046.442-.046.987V54.1a.991.991 0 0 1-.997.988h-5.674a.991.991 0 0 1-.996-.988V21.886c0-.545.445-.987.996-.987h5.3c.55 0 .997.442.997.987v.85c0 .546.031.988.07.988.04 0 .338-.356.722-.747 2.206-2.248 5.494-3.075 8.609-2.59 3.103.482 5.73 2.379 7.332 4.997.285.467.68 1.261.884 1.767.665 1.645.99 3.42.99 5.19 0 3.508-1.234 7.133-3.883 9.547zm-3.402-9.12c0-2.454-1.304-4.923-3.745-5.742-2.266-.76-4.791 0-6.25 1.865-1.604 2.052-1.774 4.95-.453 7.185 1.223 2.068 3.52 3.126 5.904 2.727 2.908-.486 4.544-3.272 4.544-6.035zm10.522 9.997V9.893c0-.542.462-.982 1.033-.982h6.028c.57 0 1.033.44 1.033.982v32.872c0 .542-.463.982-1.033.982h-6.028c-.57 0-1.033-.44-1.033-.982zM243.5 54.149c-2.392 1.08-5.41 1.15-8.025.612-.537-.11-.908-.666-.837-1.204l.582-4.407c.07-.537.55-.828 1.086-.714 1.047.224 2.183.266 3.163-.088 1.203-.435 1.84-1.729 2.262-2.84l.385-.975c.2-.504.187-1.318-.027-1.816l-8.916-20.75c-.214-.5.057-.904.605-.904h6.495c.548 0 1.138.415 1.318.927l4.52 12.877c.18.512.357.927.396.927.039 0 .201-.42.363-.937L250.896 22c.162-.517.738-.937 1.287-.937h6.12c.549 0 .832.41.633.914l-10.03 25.464c-1.057 2.72-2.61 5.447-5.406 6.708z" fill="#2BB673" fill-rule="evenodd"/></svg>